<svg version="1.1" id="Layer_1" xmlns="http://www.w3.org/2000/svg" xmlns:xlink="http://www.w3.org/1999/xlink" x="0px" y="0px"
	 width="100%" viewBox="0 0 500 500" enable-background="new 0 0 500 500" xml:space="preserve">
<path fill="#FFFFFF" opacity="1.000000" stroke="none" 
	d="
M235.000000,501.000000 
	C156.666687,501.000000 78.833374,501.000000 1.000042,501.000000 
	C1.000028,334.333405 1.000028,167.666779 1.000014,1.000131 
	C167.666565,1.000087 334.333130,1.000087 500.999756,1.000044 
	C500.999847,167.666519 500.999847,334.333038 500.999939,500.999786 
	C412.500000,501.000000 324.000000,501.000000 235.000000,501.000000 
M377.648712,306.123047 
	C380.583923,303.934692 383.524780,301.753906 386.453339,299.556763 
	C401.230133,288.470520 416.038696,277.426331 430.766754,266.275726 
	C441.604584,258.070435 442.503754,244.289612 432.292633,236.497467 
	C408.081909,218.022064 383.655548,199.827576 359.188721,181.691772 
	C356.765167,179.895325 353.549683,178.673218 350.549988,178.243088 
	C342.375366,177.070938 334.995148,181.723099 331.902985,189.370880 
	C328.732056,197.213516 330.794067,205.368210 337.825897,210.773071 
	C349.833344,220.002350 362.030914,228.984161 374.136841,238.085541 
	C379.548126,242.153809 384.930939,246.259949 390.782654,250.694427 
	C388.603149,252.379944 386.941498,253.702927 385.241089,254.974060 
	C369.780426,266.531677 354.260223,278.010498 338.867401,289.657715 
	C329.653137,296.629822 327.817169,307.432068 334.106537,315.960114 
	C340.263611,324.308777 351.345245,325.557281 360.689758,318.823181 
	C366.224701,314.834473 371.620239,310.652344 377.648712,306.123047 
M151.738541,178.974518 
	C147.577164,180.863541 142.934357,182.098267 139.332886,184.748230 
	C116.667625,201.425491 94.228920,218.410751 71.725510,235.307785 
	C59.470455,244.509674 59.299664,257.721680 71.543739,266.992065 
	C94.643448,284.481598 117.800133,301.898224 141.116821,319.096130 
	C144.321548,321.459839 148.465637,323.341858 152.368591,323.801514 
	C160.371338,324.743988 167.451279,319.641571 170.245605,312.169617 
	C173.077469,304.597382 171.047852,296.574280 164.568924,291.554321 
	C155.092819,284.212097 145.416733,277.128174 135.835205,269.921783 
	C127.759377,263.847839 119.696831,257.756256 111.171097,251.327652 
	C114.821815,248.556778 117.960487,246.145081 121.129715,243.774231 
	C134.995071,233.401794 148.917648,223.105057 162.721436,212.651428 
	C170.536270,206.733261 173.176895,199.192917 170.599518,191.262650 
	C168.096771,183.561966 161.768799,179.219376 151.738541,178.974518 
M262.695374,315.481812 
	C262.695404,281.322113 262.695343,247.162430 262.695496,213.002747 
	C262.695557,202.171616 262.814636,191.338486 262.631073,180.510483 
	C262.568268,176.806808 263.830872,175.354156 267.534058,175.620193 
	C270.629852,175.842575 273.754272,175.665833 276.992920,175.665833 
	C276.992920,168.311981 276.992920,161.612366 276.992920,154.696121 
	C268.638885,154.800522 260.607025,153.687576 253.146683,157.850113 
	C252.142059,158.410645 250.211655,158.063248 249.050049,157.470154 
	C241.040878,153.380829 232.609619,155.014771 224.280029,154.658676 
	C224.280029,161.979889 224.280029,168.572556 224.280029,175.667557 
	C228.358902,175.667557 232.162201,175.789520 235.954041,175.633255 
	C239.749878,175.476822 241.360809,176.996185 241.355545,180.892899 
	C241.292297,227.716599 241.290466,274.540466 241.360367,321.364166 
	C241.365921,325.080200 239.810623,326.455231 236.279602,326.356689 
	C232.329514,326.246460 228.374008,326.331360 224.208969,326.331360 
	C224.208969,333.554962 224.208969,340.167267 224.208969,347.277679 
	C232.724442,347.114227 241.167023,348.418579 249.283112,344.637512 
	C250.747940,343.955078 253.127426,344.232788 254.691803,344.938324 
	C262.009644,348.238403 269.544403,347.247467 277.055725,347.213928 
	C277.055725,339.979767 277.055725,333.388916 277.055725,326.549011 
	C275.247528,326.467468 273.778748,326.354462 272.309174,326.342560 
	C262.692596,326.264801 262.692535,326.271942 262.695374,315.481812 
z"/>
<path fill="#4E81C5" opacity="1.000000" stroke="none" 
	d="
M377.363586,306.340118 
	C371.620239,310.652344 366.224701,314.834473 360.689758,318.823181 
	C351.345245,325.557281 340.263611,324.308777 334.106537,315.960114 
	C327.817169,307.432068 329.653137,296.629822 338.867401,289.657715 
	C354.260223,278.010498 369.780426,266.531677 385.241089,254.974060 
	C386.941498,253.702927 388.603149,252.379944 390.782654,250.694427 
	C384.930939,246.259949 379.548126,242.153809 374.136841,238.085541 
	C362.030914,228.984161 349.833344,220.002350 337.825897,210.773071 
	C330.794067,205.368210 328.732056,197.213516 331.902985,189.370880 
	C334.995148,181.723099 342.375366,177.070938 350.549988,178.243088 
	C353.549683,178.673218 356.765167,179.895325 359.188721,181.691772 
	C383.655548,199.827576 408.081909,218.022064 432.292633,236.497467 
	C442.503754,244.289612 441.604584,258.070435 430.766754,266.275726 
	C416.038696,277.426331 401.230133,288.470520 386.453339,299.556763 
	C383.524780,301.753906 380.583923,303.934692 377.363586,306.340118 
z"/>
<path fill="#4E81C5" opacity="1.000000" stroke="none" 
	d="
M152.173950,178.945663 
	C161.768799,179.219376 168.096771,183.561966 170.599518,191.262650 
	C173.176895,199.192917 170.536270,206.733261 162.721436,212.651428 
	C148.917648,223.105057 134.995071,233.401794 121.129715,243.774231 
	C117.960487,246.145081 114.821815,248.556778 111.171097,251.327652 
	C119.696831,257.756256 127.759377,263.847839 135.835205,269.921783 
	C145.416733,277.128174 155.092819,284.212097 164.568924,291.554321 
	C171.047852,296.574280 173.077469,304.597382 170.245605,312.169617 
	C167.451279,319.641571 160.371338,324.743988 152.368591,323.801514 
	C148.465637,323.341858 144.321548,321.459839 141.116821,319.096130 
	C117.800133,301.898224 94.643448,284.481598 71.543739,266.992065 
	C59.299664,257.721680 59.470455,244.509674 71.725510,235.307785 
	C94.228920,218.410751 116.667625,201.425491 139.332886,184.748230 
	C142.934357,182.098267 147.577164,180.863541 152.173950,178.945663 
z"/>
<path fill="#5384C7" opacity="1.000000" stroke="none" 
	d="
M262.695190,315.977600 
	C262.692535,326.271942 262.692596,326.264801 272.309174,326.342560 
	C273.778748,326.354462 275.247528,326.467468 277.055725,326.549011 
	C277.055725,333.388916 277.055725,339.979767 277.055725,347.213928 
	C269.544403,347.247467 262.009644,348.238403 254.691803,344.938324 
	C253.127426,344.232788 250.747940,343.955078 249.283112,344.637512 
	C241.167023,348.418579 232.724442,347.114227 224.208969,347.277679 
	C224.208969,340.167267 224.208969,333.554962 224.208969,326.331360 
	C228.374008,326.331360 232.329514,326.246460 236.279602,326.356689 
	C239.810623,326.455231 241.365921,325.080200 241.360367,321.364166 
	C241.290466,274.540466 241.292297,227.716599 241.355545,180.892899 
	C241.360809,176.996185 239.749878,175.476822 235.954041,175.633255 
	C232.162201,175.789520 228.358902,175.667557 224.280029,175.667557 
	C224.280029,168.572556 224.280029,161.979889 224.280029,154.658676 
	C232.609619,155.014771 241.040878,153.380829 249.050049,157.470154 
	C250.211655,158.063248 252.142059,158.410645 253.146683,157.850113 
	C260.607025,153.687576 268.638885,154.800522 276.992920,154.696121 
	C276.992920,161.612366 276.992920,168.311981 276.992920,175.665833 
	C273.754272,175.665833 270.629852,175.842575 267.534058,175.620193 
	C263.830872,175.354156 262.568268,176.806808 262.631073,180.510483 
	C262.814636,191.338486 262.695557,202.171616 262.695496,213.002747 
	C262.695343,247.162430 262.695404,281.322113 262.695190,315.977600 
z"/>
</svg>